<?xml version="1.0" encoding="UTF-8"?>
<svg width="79.1" height="115" version="1.1" viewBox="0 0 79.1 115" xmlns="http://www.w3.org/2000/svg">
 <g transform="translate(-20.5 -3.04)">
  <rect x="-127" y="37.5" width="123" height="123" ry="13.9" fill="#0682b6" style="paint-order:markers stroke fill"/>
  <path d="m22.4 46h75.2a1.97 1.97 48.7 0 1 1.95 2.22l-8.18 62.3a8.75 8.75 139 0 1-8.68 7.61h-45.4a8.75 8.75 41.3 0 1-8.68-7.61l-8.18-62.3a1.97 1.97 131 0 1 1.95-2.22z" fill="#75ae02" style="paint-order:markers stroke fill"/>
  <path d="m95.9 40.4c-7.65e-4 -18.8-16.1-34-35.9-34-19.8 7.22e-4 -35.9 15.2-35.9 34" fill="none" stroke="#75ae02" stroke-linecap="round" stroke-width="6.75" style="paint-order:markers stroke fill"/>
  <g transform="translate(-.0417 -1.27)" fill="#f1f1f1" stroke="#f1f1f1" stroke-linecap="square" stroke-linejoin="round" stroke-width="3.04" aria-label="M">
   <path d="m49 61.8 11.1 31.2 11-31.2h11.6v43h-8.89v-11.8l0.886-20.3-11.6 32.1h-6.09l-11.6-32 0.886 20.3v11.8h-8.86v-43z" fill="#f1f1f1" stroke="#f1f1f1" stroke-width="3.19"/>
  </g>
 </g>
</svg>
